<svg width="1140" height="251" viewBox="0 0 1140 251" fill="none" xmlns="http://www.w3.org/2000/svg">
<path d="M409.432 124.178C422.706 127.147 433.271 132.949 441.127 141.585C449.254 150.221 453.317 160.341 453.317 171.946C453.317 187.599 446.68 200.148 433.406 209.593C420.133 218.769 402.254 223.357 379.769 223.357H294.844L292 216.07C298.772 214.181 303.648 212.427 306.628 210.808C309.608 208.919 311.64 206.49 312.723 203.521C313.807 200.552 314.349 195.965 314.349 189.758V80.0541C314.349 70.6086 313.536 63.7268 311.911 59.4088C310.556 55.0908 307.17 51.3126 301.752 48.0741L296.876 45.2405L298.501 39.978C307.17 37.2792 318.277 35.1202 331.821 33.501C345.637 31.6119 358.098 30.6673 369.205 30.6673C393.043 30.6673 411.599 35.1202 424.873 44.026C438.418 52.9319 445.19 65.346 445.19 81.2685C445.19 91.2538 441.939 100.025 435.438 107.581C429.207 114.868 420.539 120.4 409.432 124.178ZM379.363 214.451C389.115 214.451 397.107 210.538 403.337 202.711C409.839 194.885 413.089 184.9 413.089 172.756C413.089 160.341 408.89 150.221 400.493 142.395C392.095 134.568 380.176 129.306 364.735 126.607V121.75C377.196 121.75 386.948 118.106 393.991 110.82C401.305 103.533 404.963 93.6827 404.963 81.2685C404.963 68.8544 401.983 59.004 396.023 51.7174C390.063 44.161 382.072 40.3828 372.049 40.3828C366.089 40.3828 361.484 42.4068 358.233 46.4549C354.983 50.2331 353.357 55.6306 353.357 62.6473V178.423C353.357 189.488 355.66 198.259 360.265 204.735C365.141 211.212 371.507 214.451 379.363 214.451Z" fill="#161616"/>
<path d="M542.801 213.641C550.657 213.641 557.564 212.292 563.524 209.593C569.484 206.625 575.308 201.767 580.997 195.02L585.873 198.663C579.642 207.569 571.651 214.586 561.899 219.713C552.417 224.571 541.988 227 530.611 227C518.149 227 506.907 224.031 496.884 218.094C487.132 212.157 479.412 204.061 473.723 193.806C468.034 183.281 465.19 171.406 465.19 158.182C465.19 137.132 471.556 120.4 484.288 107.986C497.291 95.3019 514.492 88.9599 535.893 88.9599C551.063 88.9599 563.389 92.6032 572.87 99.8898C582.622 106.906 587.498 116.082 587.498 127.417C587.498 140.371 581.945 150.761 570.838 158.587C560.002 166.144 545.103 169.922 526.141 169.922C518.556 169.922 511.648 169.382 505.417 168.303C506.772 182.336 510.835 193.401 517.608 201.497C524.38 209.593 532.778 213.641 542.801 213.641ZM531.423 98.6753C523.025 98.6753 516.389 103.803 511.513 114.058C506.907 124.043 504.605 138.077 504.605 156.158V162.635C507.585 162.635 511.242 162.365 515.576 161.826C526.953 160.476 535.622 156.833 541.582 150.896C547.812 144.689 550.928 136.593 550.928 126.607C550.928 118.511 549.031 111.899 545.239 106.772C541.717 101.374 537.112 98.6753 531.423 98.6753Z" fill="#161616"/>
<path d="M645.494 200.283C645.494 208.379 648.067 212.427 653.214 212.427C658.361 212.427 663.373 210.403 668.249 206.355L671.499 210.403C662.018 221.468 650.234 227 636.148 227C626.667 227 619.759 224.841 615.424 220.523C611.09 215.935 608.923 208.784 608.923 199.068V50.503C608.923 46.7248 607.162 44.8357 603.641 44.8357H590.638L589.419 40.7876C594.566 35.9299 601.203 32.1516 609.329 29.4529C617.727 26.4843 625.989 25 634.116 25C637.638 25 640.347 25.8096 642.243 27.4289C644.41 28.7782 645.494 30.8023 645.494 33.501V200.283Z" fill="#161616"/>
<path d="M723.543 200.283C723.543 208.379 726.116 212.427 731.263 212.427C736.41 212.427 741.422 210.403 746.298 206.355L749.548 210.403C739.525 221.468 727.741 227 714.197 227C704.445 227 697.401 224.571 693.067 219.713C688.733 214.586 686.566 206.355 686.566 195.02V114.868C686.566 111.09 684.805 109.2 681.283 109.2H668.687L667.468 104.747C672.886 100.16 679.658 96.3814 687.785 93.4128C695.912 90.4442 704.038 88.9599 712.165 88.9599C715.416 88.9599 718.125 89.7695 720.292 91.3888C722.459 93.008 723.543 95.167 723.543 97.8657V200.283ZM682.502 50.0982C682.502 45.2405 685.211 39.843 690.629 33.9058C696.047 27.9686 701.059 25 705.664 25C710.54 25 715.687 27.9686 721.105 33.9058C726.793 39.843 729.638 45.2405 729.638 50.0982C729.638 55.2258 726.793 60.7582 721.105 66.6954C715.687 72.3627 710.54 75.1964 705.664 75.1964C701.059 75.1964 696.047 72.3627 690.629 66.6954C685.211 60.7582 682.502 55.2258 682.502 50.0982Z" fill="#161616"/>
<path d="M827.937 213.641C835.793 213.641 842.701 212.292 848.66 209.593C854.62 206.625 860.444 201.767 866.133 195.02L871.009 198.663C864.779 207.569 856.787 214.586 847.035 219.713C837.554 224.571 827.124 227 815.747 227C803.286 227 792.044 224.031 782.021 218.094C772.269 212.157 764.548 204.061 758.859 193.806C753.171 183.281 750.326 171.406 750.326 158.182C750.326 137.132 756.692 120.4 769.424 107.986C782.427 95.3019 799.629 88.9599 821.029 88.9599C836.199 88.9599 848.525 92.6032 858.006 99.8898C867.758 106.906 872.635 116.082 872.635 127.417C872.635 140.371 867.081 150.761 855.975 158.587C845.139 166.144 830.24 169.922 811.277 169.922C803.692 169.922 796.784 169.382 790.554 168.303C791.908 182.336 795.972 193.401 802.744 201.497C809.516 209.593 817.914 213.641 827.937 213.641ZM816.56 98.6753C808.162 98.6753 801.525 103.803 796.649 114.058C792.044 124.043 789.741 138.077 789.741 156.158V162.635C792.721 162.635 796.378 162.365 800.712 161.826C812.09 160.476 820.758 156.833 826.718 150.896C832.949 144.689 836.064 136.593 836.064 126.607C836.064 118.511 834.168 111.899 830.375 106.772C826.854 101.374 822.248 98.6753 816.56 98.6753Z" fill="#161616"/>
<path d="M956.229 214.046C964.898 214.046 971.67 208.514 976.546 197.449C981.693 186.114 984.267 171.946 984.267 154.944C984.267 132.005 979.391 113.923 969.639 100.699L965.982 96.2465L969.232 93.008L1003.36 88.9599C1004.18 100.564 1004.58 109.875 1004.58 116.892C1004.58 151.436 999.302 178.423 988.737 197.854C978.172 217.285 963.95 227 946.071 227C931.985 227 921.284 222.817 913.97 214.451C906.927 206.085 901.915 192.321 898.936 173.16L890.402 114.868C890.131 112.709 889.59 111.224 888.777 110.415C887.964 109.605 886.745 109.2 885.12 109.2H874.149L872.93 104.747C878.348 99.8898 884.849 96.1116 892.434 93.4128C900.019 90.4442 907.469 88.9599 914.783 88.9599C918.846 88.9599 921.691 90.1743 923.316 92.6032C925.212 95.0321 926.702 99.8898 927.786 107.176L938.35 179.637C940.247 192.861 942.414 201.902 944.852 206.76C947.29 211.617 951.082 214.046 956.229 214.046Z" fill="#161616"/>
<path d="M1110.74 88.9599C1119.41 88.9599 1126.46 91.5237 1131.87 96.6513C1137.29 101.509 1140 107.851 1140 115.677C1140 122.964 1137.83 128.901 1133.5 133.489C1129.16 137.807 1123.48 139.966 1116.43 139.966C1111.01 139.966 1106 138.886 1101.4 136.727C1106.27 132.679 1108.71 126.607 1108.71 118.511C1108.71 114.733 1107.9 111.764 1106.27 109.605C1104.65 107.446 1102.48 106.367 1099.77 106.367C1093.27 106.367 1087.85 112.979 1083.52 126.202C1079.18 139.156 1077.02 155.349 1077.02 174.78C1077.02 184.765 1077.56 192.726 1078.64 198.663C1080 204.601 1082.16 210.133 1085.14 215.261L1088.39 219.309L1085.14 223.357H1026.22L1023.79 216.475L1029.48 215.261C1033.81 214.181 1036.65 212.562 1038.01 210.403C1039.36 207.974 1040.04 203.386 1040.04 196.639V117.701C1040.04 112.574 1038.28 110.01 1034.76 110.01H1022.16L1020.54 105.557C1025.68 100.969 1032.05 97.1911 1039.63 94.2225C1047.49 91.2538 1055.21 89.7695 1062.8 89.7695C1066.32 89.7695 1069.16 90.5792 1071.33 92.1984C1073.5 93.8176 1074.58 95.9766 1074.58 98.6753V128.226H1075.8C1081.49 102.049 1093.14 88.9599 1110.74 88.9599Z" fill="#161616"/>
<path d="M0 60.4741C0 27.0752 27.0752 0 60.4741 0H190.526C223.925 0 251 27.0752 251 60.4741V190.526C251 223.925 223.925 251 190.526 251H60.4741C27.0752 251 0 223.925 0 190.526V60.4741Z" fill="url(#paint0_linear_46_8)"/>
<path fill-rule="evenodd" clip-rule="evenodd" d="M55.1763 77.2153C81.0493 48.4356 112.818 34.1237 132.787 40.5421C150.722 44.1482 171.962 56.9415 190.382 76.8764L190.749 77.275C203.221 90.8655 212.487 105.694 217.997 119.717C226.839 141.188 226.999 160.974 216.519 171.843L216.316 172.051C212.819 175.593 208.432 177.893 203.399 179.034C203.41 179.887 203.399 180.73 203.367 181.562C203.02 190.451 200.15 198.603 193.883 204.045C182.282 214.118 166.27 213.891 150.51 207.295C141.743 203.626 132.698 197.873 123.856 190.302C112.554 199.879 101.47 206.627 91.0744 210.084C76.0165 215.09 61.7905 213.29 51.3209 202.319C48.7877 199.664 46.9351 196.537 45.6694 193.102C43.8681 188.983 42.9869 184.352 42.849 179.522C38.6829 178.37 34.9946 176.359 31.9355 173.435L31.7266 173.233C28.9323 170.498 26.8425 167.148 25.4249 163.312C16.5708 143.035 28.1261 107.509 54.8144 77.6193L55.1763 77.2153ZM123.537 137.632C122.292 139.136 121.008 140.629 119.688 142.108L119.326 142.512C98.5332 165.64 73.9327 179.424 54.7092 180.615C54.7775 183.664 55.2313 186.292 56.003 188.512C56.7061 190.033 57.581 191.322 58.5972 192.387C65.2853 199.396 74.7214 201.351 87.024 197.26C95.3679 194.486 104.732 188.982 114.694 180.756C114.693 180.755 114.692 180.754 114.691 180.753L114.794 180.673C117.659 178.304 120.572 175.709 123.524 172.89L129.703 179.001C137.997 186.203 146.315 191.504 154.109 194.766C167.958 200.562 179.018 199.568 186.101 193.417C189.154 190.767 191.203 186.291 191.487 179.715C172.429 178.075 148.393 164.728 127.859 142.506L127.492 142.107C126.136 140.629 124.817 139.136 123.537 137.632ZM102.491 104.972C82.4802 119.246 68.1042 138.078 60.607 155.317C58.8517 159.354 57.4951 163.253 56.5271 166.943C59.515 166.503 62.8387 165.677 66.5081 164.379C80.3562 159.479 96.407 148.59 110.825 132.443C112.395 130.684 113.903 128.909 115.351 127.124C110.304 120.024 106.106 112.798 102.825 105.7L102.491 104.972ZM94.6096 61.6012C84.3619 67.496 73.6305 76.1369 63.6774 87.284C49.2598 103.431 39.9632 120.931 36.2248 135.726C33.6307 145.994 33.9585 153.566 35.7722 158.736C36.5857 160.511 37.5929 161.94 38.7146 163.038C40.0634 164.358 41.8569 165.474 44.1126 166.238C45.268 160.591 47.1788 154.72 49.7445 148.82C58.3751 128.974 74.8352 107.833 97.5099 92.243C93.8413 80.9122 92.7719 70.3185 94.6096 61.6012ZM144.625 103.694C141.2 111.674 136.625 119.85 130.994 127.868C132.367 129.491 133.792 131.104 135.268 132.702C149.945 148.586 166.167 159.183 180.09 163.833C183.718 165.045 187.004 165.806 189.96 166.199C189.202 163.072 188.16 159.775 186.819 156.346C179.781 139.337 165.848 120.163 145.121 104.078L144.625 103.694ZM150.679 61.0406C152.934 69.5435 152.294 80.0311 149.052 91.3572C172.62 109.045 188.692 130.787 196.742 150.633C196.887 150.99 197.029 151.347 197.169 151.704C197.246 151.891 197.323 152.079 197.399 152.266C199.229 156.776 200.662 161.236 201.67 165.569C204.318 164.762 206.375 163.5 207.868 161.987C212.187 157.613 214.672 148.236 210.549 132.98C209.791 130.176 208.83 127.277 207.669 124.311C202.651 112.155 194.342 98.9843 182.973 86.6797C172.692 75.5538 161.653 67.0219 151.177 61.3107L150.679 61.0406ZM130.563 53.5485C120.487 51.6681 113.878 53.8451 110.373 57.395C106.054 61.7697 103.57 71.1461 107.692 86.402C108.451 89.2118 109.415 92.1164 110.578 95.0877C113.522 102.215 117.597 109.691 122.757 117.137C130.478 105.692 135.699 94.2032 138.277 83.9999C140.871 73.7336 140.543 66.1624 138.73 60.9928C137.916 59.2165 136.909 57.787 135.787 56.6887C134.473 55.4025 132.737 54.3103 130.563 53.5485Z" fill="white"/>
<defs>
<linearGradient id="paint0_linear_46_8" x1="18.0514" y1="251" x2="276.573" y2="-5.19504e-06" gradientUnits="userSpaceOnUse">
<stop stop-color="#00A8FF"/>
<stop offset="1" stop-color="#FF9F43"/>
</linearGradient>
</defs>
</svg>
