<svg width="655" height="156" viewBox="0 0 655 156" fill="none" xmlns="http://www.w3.org/2000/svg">
<path d="M90.7054 76.5932C100.958 78.8858 109.118 83.3667 115.186 90.0361C121.464 96.7054 124.602 104.521 124.602 113.483C124.602 125.571 119.476 135.263 109.223 142.557C98.9703 149.643 85.1605 153.186 67.7936 153.186H2.19702L0 147.559C5.23099 146.1 8.9973 144.745 11.2989 143.495C13.6006 142.036 15.1699 140.16 16.0068 137.868C16.8438 135.575 17.2623 132.032 17.2623 127.238V42.517C17.2623 35.2224 16.6345 29.9078 15.3791 26.5731C14.3329 23.2385 11.7174 20.3206 7.53263 17.8196L3.76631 15.6313L5.02175 11.5671C11.7174 9.48296 20.2962 7.81563 30.7582 6.56513C41.4294 5.10621 51.0545 4.37675 59.6333 4.37675C78.0464 4.37675 92.3793 7.81563 102.632 14.6934C113.094 21.5711 118.325 31.1583 118.325 43.4549C118.325 51.1663 115.814 57.9399 110.792 63.7756C105.98 69.4028 99.2842 73.6754 90.7054 76.5932ZM67.4798 146.309C75.0124 146.309 81.185 143.287 85.9975 137.242C91.0192 131.198 93.5301 123.487 93.5301 114.108C93.5301 104.521 90.2869 96.7054 83.8005 90.6613C77.314 84.6172 68.1075 80.5531 56.1808 78.4689V74.7174C65.8059 74.7174 73.3385 71.9038 78.7787 66.2766C84.4282 60.6493 87.2529 53.0421 87.2529 43.4549C87.2529 33.8677 84.9513 26.2605 80.348 20.6333C75.7447 14.7976 69.5722 11.8798 61.8303 11.8798C57.227 11.8798 53.67 13.4429 51.1591 16.5691C48.6482 19.487 47.3928 23.6553 47.3928 29.0741V118.485C47.3928 127.03 49.1713 133.804 52.7284 138.806C56.4947 143.808 61.4118 146.309 67.4798 146.309Z" fill="#1E1E1E"/>
<path d="M193.72 145.683C199.788 145.683 205.123 144.641 209.727 142.557C214.33 140.265 218.829 136.513 223.223 131.303L226.989 134.116C222.176 140.994 216.004 146.413 208.471 150.373C201.148 154.124 193.092 156 184.304 156C174.679 156 165.996 153.707 158.254 149.122C150.721 144.537 144.758 138.285 140.364 130.365C135.97 122.236 133.773 113.066 133.773 102.854C133.773 86.5972 138.69 73.6754 148.524 64.0882C158.568 54.2926 171.854 49.3948 188.384 49.3948C200.102 49.3948 209.622 52.2084 216.945 57.8357C224.478 63.2545 228.244 70.3407 228.244 79.0942C228.244 89.0982 223.955 97.1222 215.376 103.166C207.007 109.002 195.498 111.92 180.852 111.92C174.993 111.92 169.657 111.503 164.845 110.669C165.891 121.507 169.03 130.052 174.261 136.305C179.492 142.557 185.978 145.683 193.72 145.683ZM184.932 56.8978C178.445 56.8978 173.319 60.8577 169.553 68.7776C165.996 76.489 164.217 87.3267 164.217 101.291V106.293C166.519 106.293 169.343 106.084 172.691 105.667C181.479 104.625 188.175 101.812 192.778 97.2265C197.591 92.4329 199.997 86.1804 199.997 78.4689C199.997 72.2164 198.532 67.1102 195.603 63.1503C192.883 58.982 189.326 56.8978 184.932 56.8978Z" fill="#1E1E1E"/>
<path d="M273.04 135.367C273.04 141.619 275.028 144.746 279.004 144.746C282.979 144.746 286.85 143.182 290.617 140.056L293.127 143.182C285.804 151.727 276.702 156 265.822 156C258.498 156 253.163 154.333 249.815 150.998C246.467 147.455 244.793 141.932 244.793 134.429V19.6954C244.793 16.7776 243.433 15.3186 240.713 15.3186H230.669L229.728 12.1924C233.703 8.44088 238.83 5.52304 245.107 3.43887C251.593 1.14629 257.975 0 264.252 0C266.973 0 269.065 0.625249 270.53 1.87575C272.204 2.91783 273.04 4.48096 273.04 6.56513V135.367Z" fill="#1E1E1E"/>
<path d="M333.326 135.367C333.326 141.619 335.314 144.746 339.289 144.746C343.265 144.746 347.136 143.182 350.902 140.056L353.413 143.182C345.671 151.727 336.569 156 326.107 156C318.575 156 313.134 154.124 309.787 150.373C306.439 146.413 304.765 140.056 304.765 131.303V69.4028C304.765 66.485 303.405 65.0261 300.685 65.0261H290.955L290.013 61.5872C294.198 58.0441 299.429 55.1263 305.706 52.8337C311.984 50.5411 318.261 49.3948 324.538 49.3948C327.049 49.3948 329.141 50.02 330.815 51.2705C332.489 52.521 333.326 54.1884 333.326 56.2726V135.367ZM301.626 19.3828C301.626 15.6313 303.719 11.4629 307.903 6.87775C312.088 2.29258 315.959 0 319.516 0C323.283 0 327.258 2.29258 331.443 6.87775C335.837 11.4629 338.034 15.6313 338.034 19.3828C338.034 23.3427 335.837 27.6152 331.443 32.2004C327.258 36.5772 323.283 38.7655 319.516 38.7655C315.959 38.7655 312.088 36.5772 307.903 32.2004C303.719 27.6152 301.626 23.3427 301.626 19.3828Z" fill="#1E1E1E"/>
<path d="M413.961 145.683C420.029 145.683 425.364 144.641 429.968 142.557C434.571 140.265 439.07 136.513 443.464 131.303L447.23 134.116C442.417 140.994 436.245 146.413 428.712 150.373C421.389 154.124 413.333 156 404.545 156C394.92 156 386.237 153.707 378.495 149.122C370.962 144.537 364.999 138.285 360.605 130.365C356.211 122.236 354.014 113.066 354.014 102.854C354.014 86.5972 358.931 73.6754 368.765 64.0882C378.809 54.2926 392.095 49.3948 408.625 49.3948C420.343 49.3948 429.863 52.2084 437.186 57.8357C444.719 63.2545 448.485 70.3407 448.485 79.0942C448.485 89.0982 444.196 97.1222 435.617 103.166C427.248 109.002 415.739 111.92 401.093 111.92C395.234 111.92 389.898 111.503 385.086 110.669C386.132 121.507 389.271 130.052 394.502 136.305C399.733 142.557 406.219 145.683 413.961 145.683ZM405.173 56.8978C398.686 56.8978 393.56 60.8577 389.794 68.7776C386.237 76.489 384.458 87.3267 384.458 101.291V106.293C386.76 106.293 389.584 106.084 392.932 105.667C401.72 104.625 408.416 101.812 413.019 97.2265C417.832 92.4329 420.238 86.1804 420.238 78.4689C420.238 72.2164 418.773 67.1102 415.844 63.1503C413.124 58.982 409.567 56.8978 405.173 56.8978Z" fill="#1E1E1E"/>
<path d="M513.055 145.996C519.75 145.996 524.981 141.723 528.748 133.178C532.723 124.425 534.711 113.483 534.711 100.353C534.711 82.6373 530.945 68.6734 523.412 58.4609L520.587 55.022L523.098 52.521L549.462 49.3948C550.09 58.3567 550.404 65.5471 550.404 70.9659C550.404 97.6433 546.324 118.485 538.163 133.491C530.003 148.497 519.018 156 505.208 156C494.328 156 486.063 152.77 480.413 146.309C474.973 139.848 471.102 129.218 468.8 114.421L462.209 69.4028C462 67.7355 461.582 66.5892 460.954 65.9639C460.326 65.3387 459.385 65.0261 458.129 65.0261H449.655L448.713 61.5872C452.898 57.8357 457.92 54.9178 463.779 52.8337C469.637 50.5411 475.392 49.3948 481.041 49.3948C484.18 49.3948 486.377 50.3327 487.632 52.2084C489.097 54.0842 490.248 57.8357 491.084 63.4629L499.245 119.423C500.71 129.635 502.383 136.617 504.267 140.369C506.15 144.12 509.079 145.996 513.055 145.996Z" fill="#1E1E1E"/>
<path d="M632.402 49.3948C639.098 49.3948 644.538 51.3747 648.723 55.3347C652.908 59.0862 655 63.984 655 70.0281C655 75.6553 653.326 80.2405 649.978 83.7836C646.63 87.1182 642.236 88.7856 636.796 88.7856C632.611 88.7856 628.74 87.9519 625.183 86.2846C628.95 83.1583 630.833 78.4689 630.833 72.2164C630.833 69.2986 630.205 67.006 628.95 65.3387C627.694 63.6713 626.02 62.8377 623.928 62.8377C618.906 62.8377 614.721 67.9439 611.374 78.1563C608.026 88.1603 606.352 100.665 606.352 115.671C606.352 123.383 606.77 129.531 607.607 134.116C608.653 138.701 610.327 142.974 612.629 146.934L615.14 150.06L612.629 153.186H567.119L565.236 147.872L569.63 146.934C572.978 146.1 575.175 144.85 576.221 143.182C577.267 141.307 577.791 137.764 577.791 132.553V71.5912C577.791 67.6313 576.431 65.6513 573.71 65.6513H563.981L562.725 62.2124C566.701 58.6693 571.618 55.7515 577.477 53.4589C583.545 51.1663 589.508 50.02 595.367 50.02C598.087 50.02 600.284 50.6453 601.958 51.8958C603.632 53.1463 604.469 54.8136 604.469 56.8978V79.7194H605.41C609.804 59.503 618.802 49.3948 632.402 49.3948Z" fill="#1E1E1E"/>
</svg>
